HIERARCHY
ROOT Spine
{
    OFFSET 0.0 0.0 -0.0
    CHANNELS 6 Xposition Yposition Zposition Zrotation Xrotation Yrotation
    JOINT ShoulderCenter
    {
        OFFSET 0.0 34.9124870300293 0.0
        CHANNELS 3 Zrotation Xrotation Yrotation
        JOINT LeftShoulder
        {
            OFFSET 18.576618194580078 0.0 0.0
            CHANNELS 3 Zrotation Xrotation Yrotation
            JOINT LeftElbow
            {
                OFFSET 29.719470977783203 0.0 0.0
                CHANNELS 3 Zrotation Xrotation Yrotation
                JOINT LeftHand
                {
                    OFFSET 32.92448425292969 0.0 0.0
                    CHANNELS 3 Zrotation Xrotation Yrotation
                    End Site
                    {
                        OFFSET 13.169794082641602 0.0 0.0
                    }
                }
            }
        }
        JOINT RightShoulder
        {
            OFFSET -18.576618194580078 0.0 0.0
            CHANNELS 3 Zrotation Xrotation Yrotation
            JOINT RightElbow
            {
                OFFSET -29.719470977783203 0.0 0.0
                CHANNELS 3 Zrotation Xrotation Yrotation
                JOINT RightHand
                {
                    OFFSET -32.92448425292969 0.0 0.0
                    CHANNELS 3 Zrotation Xrotation Yrotation
                    End Site
                    {
                        OFFSET -13.169794082641602 0.0 0.0
                    }
                }
            }
        }
        End Site
        {
            OFFSET 0.0 13.964996337890625 0.0
        }
    }
    JOINT LeftHip
    {
        OFFSET 17.982437774518207 -17.982437774518207 0.0
        CHANNELS 3 Zrotation Xrotation Yrotation
        JOINT LeftKnee
        {
            OFFSET 0.0 -41.60979461669922 0.0
            CHANNELS 3 Zrotation Xrotation Yrotation
            JOINT LeftFoot
            {
                OFFSET 0.0 -44.418006896972656 0.0
                CHANNELS 3 Zrotation Xrotation Yrotation
                End Site
                {
                    OFFSET 0.0 0.0 17.767200469970703
                }
            }
        }
    }
    JOINT RightHip
    {
        OFFSET -17.982437774518207 -17.982437774518207 0.0
        CHANNELS 3 Zrotation Xrotation Yrotation
        JOINT RightKnee
        {
            OFFSET 0.0 -41.60979461669922 0.0
            CHANNELS 3 Zrotation Xrotation Yrotation
            JOINT RightFoot
            {
                OFFSET 0.0 -44.418006896972656 0.0
                CHANNELS 3 Zrotation Xrotation Yrotation
                End Site
                {
                    OFFSET 0.0 0.0 17.767200469970703
                }
            }
        }
    }
}
MOTION
Frames: 6
Frame Time: 0.03333333333333333
-14.699999809265137 11.399999618530273 12.399999618530273 2.952467399333829 1.3113981971055746 91.44176085855588 2.2302907646400313e-07 2.5219833442397746e-07 -12.324917847208807 91.58839901226654 10.458567943593794 176.75134358788205 3.9893267882951624e-06 -4.153129642726815e-07 25.099630840354564 0.0 0.0 -3.1805546814635168e-15 -99.65890668213946 6.118502000743062 176.10185960502065 -1.9895995830458554e-07 6.649110390362947e-07 -91.55298710926218 -1.5902773407317584e-15 -2.2069531490250793e-32 1.5902773407317584e-15 7.7862230097188645 -3.2851021281782953 -23.99860562240033 -0.5228206067466153 8.085675160530577 -25.404123889304866 0.0 0.0 -1.6399735076296259e-15 5.432522327979839 1.8225968237595371 19.56795861982002 -7.193851680436057 2.4569580663575903 4.559611671771668 -3.1060104311167156e-17 -7.934773799728917e-34 2.9274148313275045e-15
-14.699999809265137 11.5 11.59999942779541 3.443444430409784 1.1469722486891523 90.92686106486713 1.3997684290708355e-07 1.6248767461270663e-07 -12.605345202268463 91.63979761785758 9.541868962371044 176.41857151150742 3.4788932340819658e-06 1.3145588220871493e-06 24.77326825932302 0.0 0.0 -3.1805546814635168e-15 -99.75730654489195 6.037393829556394 170.8756377941963 1.3178276907575638e-06 -5.451576353829494e-07 -92.81918039849216 3.310429723537619e-32 -6.3611093629270335e-15 5.963540027744094e-16 6.889065187637347 -1.7464610381206227 -26.103357725802475 1.1198558826941203 7.219232688080023 -23.450194288021763 3.9756933518293955e-16 1.5690057543850172e-32 4.522351187705937e-15 5.046269946757837 2.7853995020690534 20.375499530299248 -6.804522147425008 2.2139115709523023 4.085400212913845 1.2424041724466862e-16 9.93923337957349e-17 5.743013287134807e-15
-14.699999809265137 11.59999942779541 10.800000190734863 3.1072902455878615 0.49037304973397833 90.11560641701968 -2.092683165993224e-07 -2.243129831225591e-07 -12.413122614625482 92.24294820424655 8.877373140219786 176.41270535896723 9.963621989566125e-07 -4.898209865754603e-07 24.924141111798104 -3.1805546814635168e-15 6.3611093629270335e-15 3.1805546814635168e-15 -98.67508399445539 7.255392533491189 165.93288227637478 5.543398474620787e-06 8.975053220263112e-07 -94.73276327683294 0.0 0.0 3.3793393490549868e-15 6.8846523843102885 -1.1587762894740152 -27.94751269563973 1.8366157580844302 6.445362835442391 -21.189748618100094 -7.951386703658794e-16 2.0000512913039782e-32 -2.882377680076313e-15 5.244528367933375 2.52368774123402 20.43954884249319 -6.936515845865043 1.7502115668749292 3.2703180896273487 2.4848083448933725e-17 -1.8603992724287492e-33 -8.579577313352148e-15
-14.800000190734863 11.800000190734863 10.100000381469727 3.279837044793786 1.097641381171915e-07 89.02735488239796 -1.8300552111582464e-07 -2.4192572469043415e-08 -11.921471335653141 92.69134531457632 9.006001325950278 176.11506162911354 4.53083407502075e-06 -1.5831576343712664e-06 24.613072004307543 -3.1805546814635168e-15 -3.1805546814635168e-15 -8.827812596100317e-32 -98.57387579526292 6.159038714275385 161.1412471832916 2.155304382531881e-06 -1.8859403227954147e-06 -95.6600852061033 8.827812596100317e-32 6.361109362927035e-15 -1.5902773407317588e-15 6.692943695524356 -0.17265301421609622 -28.940299637334718 2.4871944329231566 5.767693337335149 -18.600161620559803 0.0 0.0 3.975693351829397e-16 5.2720826834360786 2.3791654942271436 20.3862712788404 -7.241297664884021 1.5807986496424964 3.10749617052352 0.0 0.0 2.891695711369662e-15
-14.800000190734863 11.90000057220459 9.399999618530273 4.927111622320882 -0.3280657857464788 88.4990086694284 4.572814132459248e-07 -3.301414389397941e-09 -11.93319472586854 92.95943960717376 9.822475816463841 174.5731879698895 9.85749020950697e-07 1.000942726946361e-06 24.17159302255691 3.1805546814635176e-15 -8.827812596100317e-32 -3.1805546814635176e-15 -98.5855455926717 5.0773224031782105 157.69622537098013 7.198358229683705e-07 8.279443552805531e-10 -95.00942952805006 0.0 0.0 4.770832022195275e-15 6.55115255220717 2.074796126078085 -29.34039275383507 2.8458674765166547 5.11548165781694 -16.251588733984182 2.6897241503743153e-32 -1.5902773407317582e-15 1.93815050901683e-15 5.275272602564618 3.5126547844233054 19.345813078082386 -7.408654525371261 2.158024950124061 4.395472789852003 -5.963540027744093e-16 -1.9878466759146975e-16 -3.0997984102544817e-15
-14.90000057220459 11.90000057220459 8.699999809265137 5.090497135467299 -0.6559466828599022 87.70727493810394 -1.8072443308512266e-07 -2.508048267000516e-07 -11.447447141358575 93.48797764928398 9.979017868612155 174.46238034149647 -2.497270653668093e-06 -1.46802456454305e-06 23.57910576004193 0.0 0.0 6.3611093629270335e-15 -98.54855443009775 4.063318460304162 153.02911469663155 3.4914081372097113e-06 -3.7629088789472202e-06 -94.170979260084 0.0 0.0 0.0 6.421018121135809 2.869580730803971 -30.67863613402649 3.1854360828414983 4.603031960947331 -14.329698990072355 -7.951386703658792e-16 1.9878466759146977e-16 1.888454342118963e-15 5.267365460622853 3.4763941526938553 19.387945756327824 -7.565397219362229 2.3859444270802657 4.916221035503829 -3.975693351829396e-16 6.681205822243892e-34 -1.9257264672923636e-16
